<?xml version="1.0" encoding="UTF-8"?>
<svg width="1440px" height="710px" viewBox="0 0 1440 710" version="1.1" xmlns="http://www.w3.org/2000/svg" xmlns:xlink="http://www.w3.org/1999/xlink">
    <!-- Generator: Sketch 46.2 (44496) - http://www.bohemiancoding.com/sketch -->
    <title>bg</title>
    <desc>Created with Sketch.</desc>
    <defs>
        <rect id="path-1" x="0" y="0" width="1440" height="311"></rect>
        <linearGradient x1="100%" y1="84.2848558%" x2="6.66133815e-14%" y2="20.933494%" id="linearGradient-3">
            <stop stop-color="#0076D6" offset="0%"></stop>
            <stop stop-color="#00EFF8" offset="100%"></stop>
        </linearGradient>
        <path d="M-0.999884646,284.080352 C36.7170392,262.110258 92.723461,250.833428 167.019381,250.249862 C287.955162,249.299959 413.394239,279.942763 465.518202,279.942763 C522.820631,279.942763 583.173677,273.861922 665.008749,250.249862 C697.642026,240.834109 778.443313,206.003638 889.423794,218.519538 C1113.21587,243.757843 1130.58948,218.519538 1197.60095,142.401761 C1244.77956,88.8119663 1301.15339,44.6460517 1346.51941,26.9290039 C1377.52753,14.8192249 1409.02106,5.84289024 1441,2.84217094e-14 L1441,312 L-1,312 L-0.999884646,284.080352 Z" id="path-4"></path>
        <path d="M1440,536 L1440,710 L1266,710 C1266,613.902454 1343.90245,536 1440,536 Z M1440,594 C1375.93497,594 1324,645.934969 1324,710 L1440,710 L1440,594 Z" id="path-5"></path>
        <path d="M1440,594 L1440,710 L1324,710 C1324,645.934969 1375.93497,594 1440,594 Z M1440,652 C1407.96748,652 1382,677.967485 1382,710 L1440,710 L1440,652 Z" id="path-7"></path>
        <polygon id="path-9" points="0 0 216 0 216 71 0 71"></polygon>
        <ellipse id="path-11" cx="65" cy="-64.5" rx="167" ry="125.5"></ellipse>
    </defs>
    <g id="Page-1" stroke="none" stroke-width="1" fill="none" fill-rule="evenodd">
        <g id="login_交互">
            <g id="bg">
                <g id="Group-5" transform="translate(0.000000, 399.000000)">
                    <mask id="mask-2" fill="white">
                        <use xlink:href="#path-1"></use>
                    </mask>
                    <g id="Rectangle-5"></g>
                    <g id="Path-7" mask="url(#mask-2)">
                        <use fill="url(#linearGradient-3)" fill-rule="evenodd" xlink:href="#path-4"></use>
                        <path stroke-opacity="0.16" stroke="#203580" stroke-width="1" d="M-0.499885835,284.368048 L-0.499997934,311.5 L1440.5,311.5 L1440.5,0.599998421 C1408.75526,6.43948115 1377.48915,15.3709913 1346.7013,27.3947466 C1301.84363,44.9132657 1245.56505,88.6764225 1197.97624,142.732152 C1175.69175,168.04492 1171.78783,172.370855 1162.71063,181.292649 C1137.05847,206.505645 1113.31391,219.096539 1076.2738,224.903311 C1036.69357,231.108298 980.495632,229.293396 889.367762,219.016388 C827.745366,212.06688 772.413621,218.618881 716.204821,234.662808 C702.073648,238.696331 667.679645,249.999619 665.14736,250.730265 C590.651753,272.224652 530.95927,280.442763 465.518202,280.442763 C453.725681,280.442763 437.929624,278.931518 414.785693,275.795338 C401.881259,274.046688 350.641148,266.470116 344.422833,265.580454 C282.036281,256.654732 234.914315,251.856495 188.034643,250.890183 C180.917383,250.743477 173.915102,250.695715 167.023308,250.749847 C92.9698338,251.331508 37.1269241,262.543928 -0.499885881,284.368054 Z"></path>
                    </g>
                </g>
                <mask id="mask-6" fill="white">
                    <use xlink:href="#path-5"></use>
                </mask>
                <use id="Combined-Shape" fill="#00EFF8" opacity="0.427423007" xlink:href="#path-5"></use>
                <mask id="mask-8" fill="white">
                    <use xlink:href="#path-7"></use>
                </mask>
                <use id="Combined-Shape" fill="#00EFF8" opacity="0.54" xlink:href="#path-7"></use>
                <path d="M1440,652 C1407.96748,652 1382,677.967485 1382,710 L1440,710 L1440,652 Z" id="Oval" fill="#F7FBFF"></path>
                <circle id="Oval-2" stroke="#6FA3F1" stroke-width="5" cx="1272" cy="569" r="8"></circle>
                <circle id="Oval-2-Copy" stroke="#6FA3F1" stroke-width="3" cx="1303.5" cy="512.5" r="3.5"></circle>
                <circle id="Oval-2-Copy" fill="#6FA3F1" cx="1383.5" cy="443.5" r="3.5"></circle>
                <polygon id="Polygon" fill="url(#linearGradient-3)" points="1392 245 1401 254 1392 263 1383 254"></polygon>
                <polygon id="Polygon-Copy" fill="url(#linearGradient-3)" points="1310 364 1315 369 1310 374 1305 369"></polygon>
                <polygon id="Polygon-Copy-2" fill="#6FA3F1" points="1176 631 1181 636 1176 641 1171 636"></polygon>
                <g id="左上角">
                    <mask id="mask-10" fill="white">
                        <use xlink:href="#path-9"></use>
                    </mask>
                    <g id="Mask"></g>
                    <g id="Oval-5" mask="url(#mask-10)">
                        <use fill="url(#linearGradient-3)" fill-rule="evenodd" xlink:href="#path-11"></use>
                        <ellipse stroke-opacity="0.16236413" stroke="#203580" stroke-width="1" cx="65" cy="-64.5" rx="166.5" ry="125"></ellipse>
                    </g>
                </g>
            </g>
        </g>
    </g>
</svg>